<?xml version="1.0" encoding="UTF-8" standalone="no"?>
<!-- Created with Inkscape (http://www.inkscape.org/) -->

<svg
   width="200mm"
   height="200mm"
   viewBox="0 0 200 200"
   version="1.1"
   id="svg1"
   xml:space="preserve"
   sodipodi:docname="logo.svg"
   inkscape:version="1.4.2 (ebf0e94, 2025-05-08)"
   inkscape:export-filename="logo192.png"
   inkscape:export-xdpi="24.379999"
   inkscape:export-ydpi="24.379999"
   xmlns:inkscape="http://www.inkscape.org/namespaces/inkscape"
   xmlns:sodipodi="http://sodipodi.sourceforge.net/DTD/sodipodi-0.dtd"
   xmlns:xlink="http://www.w3.org/1999/xlink"
   xmlns="http://www.w3.org/2000/svg"
   xmlns:svg="http://www.w3.org/2000/svg"><sodipodi:namedview
     id="namedview1"
     pagecolor="#ffffff"
     bordercolor="#000000"
     borderopacity="0.25"
     inkscape:showpageshadow="2"
     inkscape:pageopacity="0.0"
     inkscape:pagecheckerboard="0"
     inkscape:deskcolor="#d1d1d1"
     inkscape:document-units="mm"
     inkscape:zoom="0.63370775"
     inkscape:cx="934.97358"
     inkscape:cy="464.72526"
     inkscape:window-width="2560"
     inkscape:window-height="1403"
     inkscape:window-x="2560"
     inkscape:window-y="0"
     inkscape:window-maximized="1"
     inkscape:current-layer="layer1" /><defs
     id="defs1"><filter
       inkscape:collect="always"
       style="color-interpolation-filters:sRGB"
       id="filter4"
       x="-0.067842536"
       y="-0.050871959"
       width="1.1356851"
       height="1.1017439"><feGaussianBlur
         inkscape:collect="always"
         stdDeviation="1.8828398"
         id="feGaussianBlur4" /></filter><linearGradient
       id="linearGradient3902"><stop
         style="stop-color:#ffffff;stop-opacity:1;"
         offset="0"
         id="stop3904" /><stop
         style="stop-color:#fff9f9;stop-opacity:0.72868216;"
         offset="1"
         id="stop3906" /></linearGradient><linearGradient
       id="linearGradient4110"><stop
         style="stop-color:#ee2722;stop-opacity:1"
         offset="0"
         id="stop4112" /><stop
         style="stop-color:#231f20;stop-opacity:1"
         offset="1"
         id="stop4114" /></linearGradient><inkscape:perspective
       sodipodi:type="inkscape:persp3d"
       inkscape:vp_x="-101.77027 : 96.049 : 1"
       inkscape:vp_y="0 : 521.52296 : 0"
       inkscape:vp_z="423.55106 : 116.79245 : 1"
       inkscape:persp3d-origin="105.89827 : 33.54793 : 1"
       id="perspective4094" /><linearGradient
       id="linearGradient4483"><stop
         style="stop-color:#056aff;stop-opacity:1;"
         offset="0"
         id="stop4485" /><stop
         style="stop-color:#ffffff;stop-opacity:0;"
         offset="1"
         id="stop4487" /></linearGradient><linearGradient
       inkscape:collect="always"
       xlink:href="#linearGradient3902"
       id="linearGradient3908"
       x1="509.1376"
       y1="513.90118"
       x2="467.15973"
       y2="1029.1136"
       gradientUnits="userSpaceOnUse"
       gradientTransform="matrix(1.2524295,0,0,1.2524296,-146.91309,-129.30104)" /></defs><g
     inkscape:label="Layer 1"
     inkscape:groupmode="layer"
     id="layer1"><path
       fill="none"
       stroke="#000000"
       stroke-width="1.06892"
       d="m 99.999997,199.37544 c 43.545773,0 67.753463,0 83.564473,-15.81097 15.81097,-15.81102 15.81097,-40.0187 15.81097,-83.56447 0,-43.545772 0,-67.753454 -15.81097,-83.564466 C 167.75346,0.62455471 143.54577,0.62455471 99.999997,0.62455471 c -43.545763,0 -67.753449,0 -83.564462,15.81097929 C 0.62455612,32.246546 0.62455612,56.454228 0.62455612,100 c 0,43.54577 0,67.75345 15.81097888,83.56447 15.811013,15.81097 40.018699,15.81097 83.564462,15.81097 z"
       id="path1-5"
       style="fill:#303030;fill-opacity:1;stroke:none;stroke-width:5.21656;stroke-dasharray:none" /><g
       id="g9"
       transform="matrix(0.8628665,0,0,0.8628665,14.574602,14.652368)"><path
         d="m 68.459657,149.78494 5.988275,-47.9062 c 0.420229,-3.361836 3.277792,-5.883216 6.681654,-5.883216 h 35.425364 c 3.15173,0 5.69412,2.542392 5.69412,5.694116 0,0.67236 -0.12607,1.36575 -0.3572,1.99609 l -9.72832,25.92818 h 29.26901 c 4.24431,0 7.71122,3.44588 7.71122,7.71122 0,1.55485 -0.46226,3.06768 -1.34474,4.34937 l -40.38409,59.0423 c -1.23967,1.80699 -3.27779,2.87858 -5.44197,2.87858 h -0.60934 c -3.298795,0 -5.988262,-2.68948 -5.988262,-5.98829 0,-0.48326 0.06303,-0.96652 0.189104,-1.44978 l 9.875398,-39.64868 H 75.183333 c -3.719034,0 -6.723676,-3.00465 -6.723676,-6.72369 z"
         id="path4"
         style="opacity:0.5;mix-blend-mode:normal;fill:#000000;stroke:#000000;stroke-width:1.91;stroke-dasharray:none;filter:url(#filter4)"
         transform="matrix(1.4626266,0,0,1.4626266,-52.855894,-112.24734)" /><path
         d="m 46.522318,104.83678 8.75861,-70.068882 c 0.614637,-4.917111 4.794186,-8.604949 9.772764,-8.604949 h 51.814078 c 4.60981,0 8.32838,3.718571 8.32838,8.328366 0,0.983412 -0.18439,1.997583 -0.52245,2.919534 l -14.2289,37.923246 h 42.80963 c 6.20784,0 11.27864,5.040035 11.27864,11.278635 0,2.274165 -0.67611,4.486871 -1.96686,6.361505 l -59.06683,86.356835 c -1.81319,2.64295 -4.794193,4.21028 -7.95958,4.21028 h -0.891236 c -4.824911,0 -8.758598,-3.93369 -8.758598,-8.75862 0,-0.70683 0.09219,-1.41366 0.276589,-2.12049 L 100.61058,114.67102 H 56.356545 c -5.439558,0 -9.834227,-4.39467 -9.834227,-9.83424 z"
         id="path1"
         style="fill:#ffffff;stroke:#ffffff;stroke-width:0.307319" /></g></g></svg>
